<svg width="79" height="79" viewBox="0 0 79 79" fill="none" xmlns="http://www.w3.org/2000/svg">
<path d="M42.7123 28.1805H36.2494V37.9853H26.5551V44.5217H36.2494V54.3264H42.7123V44.5217H52.4066V37.9853H42.7123V28.1805ZM39.4809 11.8394C23.4529 11.8394 10.3978 25.043 10.3978 41.2535C10.3978 57.4639 23.4529 70.6676 39.4809 70.6676C55.5088 70.6676 68.5639 57.4639 68.5639 41.2535C68.5639 25.043 55.5088 11.8394 39.4809 11.8394ZM39.4809 64.1312C27.0075 64.1312 16.8607 53.8689 16.8607 41.2535C16.8607 28.6381 27.0075 18.3758 39.4809 18.3758C51.9542 18.3758 62.101 28.6381 62.101 41.2535C62.101 53.8689 51.9542 64.1312 39.4809 64.1312Z" fill="white"/>
</svg>
