<svg width="86" height="87" viewBox="0 0 86 87" fill="none" xmlns="http://www.w3.org/2000/svg">
<path d="M42.7336 50.773C48.6156 50.773 53.3283 45.9708 53.3283 40.0219L53.3637 18.5196C53.3637 12.5706 48.6156 7.76843 42.7336 7.76843C36.8516 7.76843 32.1035 12.5706 32.1035 18.5196V40.0219C32.1035 45.9708 36.8516 50.773 42.7336 50.773ZM61.5135 40.0219C61.5135 50.773 52.5133 58.2988 42.7336 58.2988C32.9539 58.2988 23.9537 50.773 23.9537 40.0219H17.93C17.93 52.2423 27.568 62.3484 39.1902 64.1044V75.859H46.277V64.1044C57.8993 62.3843 67.5372 52.2782 67.5372 40.0219H61.5135Z" fill="white"/>
</svg>
